<?xml version="1.0" encoding="UTF-8"?>
<svg id="Camada_1" data-name="Camada 1" xmlns="http://www.w3.org/2000/svg" version="1.1" viewBox="0 0 16 16">
  <defs>
    <style>
      .cls-1 {
        fill: #1f1f1f;
      }

      .cls-1, .cls-2, .cls-3 {
        stroke-width: 0px;
      }

      .cls-2 {
        fill: #f9f5f5;
      }

      .cls-3 {
        fill: #c7f24f;
      }
    </style>
  </defs>
  <rect class="cls-1" x="0" width="16" height="16"/>
  <rect class="cls-2" x="1.6" y="4.5" width="3.1" height="10.7"/>
  <path class="cls-3" d="M4.4,1c-.3-.3-.7-.5-1.2-.5s-.9.2-1.2.5c-.3.3-.4.7-.4,1.1v.2c0,.4.1.8.4,1.1.3.3.7.5,1.2.5s1-.2,1.2-.5c.3-.3.4-.7.4-1.1v-.2c0-.4-.1-.8-.4-1.1Z"/>
  <path class="cls-2" d="M6.5,15.2V.8h3.9c.7,0,1.3,0,1.8.1.5,0,.9.3,1.2.5.3.2.5.6.7,1,.1.4.2,1,.2,1.6s0,1.2-.2,1.6-.3.7-.6,1c-.3.2-.6.4-1,.5-.4,0-.9.1-1.4.1v.2c.5,0,1,0,1.4.1.4,0,.8.3,1,.5.3.2.5.6.7,1s.2,1,.2,1.6v.5c0,1.5-.2,2.6-.6,3.2-.4.7-1.1,1-2,1s-.6,0-.9-.1c-.3,0-.5-.2-.7-.4s-.4-.5-.6-.8-.3-.8-.4-1.3h-.2l.4,2.5h-2.9ZM10.3,5.9c.3,0,.5,0,.6-.3.1-.2.2-.4.2-.8s0-.6-.2-.8c-.1-.2-.3-.3-.6-.3h-.6v2.1h.6ZM9.8,10.3c0,.5,0,.8,0,1.1,0,.3,0,.5.1.7,0,.2.1.3.2.3s.2,0,.3,0,.2,0,.3,0,.2-.1.2-.3,0-.3.1-.6c0-.2,0-.6,0-1s0-.7,0-1c0-.2,0-.4-.2-.5s-.2-.2-.3-.2c-.1,0-.2,0-.4,0h-.4v1.5Z"/>
</svg>